<svg height="264.575131" viewBox="0 0 118.43591 82.918953" width="377.964473" xmlns="http://www.w3.org/2000/svg"><g transform="translate(-36.786644 -135.58635)"><ellipse cx="96.004601" cy="177.04582" fill="#e60012" rx="59.217957" ry="41.459476"/><g fill="#fff"><path d="m100.24205 155.01785v20.79398h-5.056342l-6.363882-10.84494-.384651-.80474v11.60576h-4.980426v-20.75006h5.064783l6.453299 11.23633.318887.6529v-11.88923z"/><path d="m145.88694 175.77579h-4.97199v-20.69947h4.97199z"/><path d="m54.605972 171.34966c1.334523 0 2.987915-.44715 2.987915-2.10891 0-1.87103-1.788362-2.17137-2.896808-2.17137h-2.110611v-3.89557h1.913217c1.715816 0 2.564449-.5298 2.564449-2.03641 0-1.50996-1.067964-1.98404-2.564449-1.98404l-.595561-.005-3.019977.003v12.1997zm7.868807-3.36247c.222707.87561.172068 1.8761.172068 1.8761s.131609 1.19957-.602309 2.61001c-.909367 1.74955-2.274255 2.41766-2.274255 2.41766s-.772715.45577-1.9419.67825c-1.250165.24294-2.847886.24294-2.847886.24294h-8.945198v-20.79396h10.812866s1.5471.0382 2.685912.57359c1.148945.54496 1.884538 1.58591 1.884538 1.58591s.868869 1.17428.963356 3.13474c.08096 1.54707-.755844 2.88836-.755844 2.88836s-.280054.61411-.816574 1.05275c-.523012.42181-1.299088.67317-1.299088.67317s1.17593.22287 1.992504 1.26367c.553384.70522.752464.93133.971795 1.79681"/><path d="m115.7479 165.50728c0-4.34268-2.04819-6.10406-5.97246-6.10406h-1.82042v11.94829h3.25786c1.75462 0 4.53502-.6681 4.53502-5.84423m4.96355.21952c0 7.29517-5.23011 10.0553-9.0751 10.0553h-.99541-7.56343v-20.74165h8.61451c3.24436 0 9.01943 1.57409 9.01943 10.68635"/><path d="m72.909583 162.25568 4.131793 13.51396h5.299302l-7.207452-20.74165h-5.036105l-7.222622 20.74165h11.759339v-4.50634h-5.034419l2.859691-8.97558.239559-.90092z"/><path d="m129.95228 162.27384 4.13179 13.51401h5.2993l-7.20745-20.74171h-5.03611l-7.22262 20.74171h11.75934v-4.50635h-5.03442l2.85969-8.97558.23956-.90096z"/><path d="m123.31802 185.36901 4.13179 13.51401h5.29931l-7.20746-20.74171h-5.0361l-7.22262 20.74171h11.75934v-4.50635h-5.03442l2.85969-8.97558.23956-.90096z"/><path d="m58.811567 198.75214 7.272382-20.57045h-5.125302l-4.778989 14.26772-4.778989-14.26772h-5.125303l7.272382 20.57045z"/><path d="m134.70811 178.18355h4.97198v16.6132h6.24323v4.08628l-11.21521-.00001z"/><path d="m72.976477 198.88302h-4.971988v-20.69947h4.971988z"/><path d="m76.800708 187.12651c-1.047761-1.81477-1.047761-4.19758 0-6.01236 1.047758-1.81477 2.984098-2.93271 5.079616-2.93271h10.818492v3.89953h-9.743557c-.805896 0-1.550581.42994-1.953529 1.12787-.402944.69793-.402944 1.55781 0 2.25574.402948.69793 1.025198 1.128 1.910059 1.12689l4.43772-.001c2.195872 0 4.224942 1.17149 5.322878 3.07316 1.097936 1.90169 1.097936 4.24465 0 6.14634-1.097936 1.90167-3.127006 3.07316-5.322878 3.07316h-11.336592v-4.08628h10.210174c.844493 0 1.624839-.45053 2.047085-1.18189.422247-.73135.422247-1.63241 0-2.36376-.422246-.73136-1.202592-1.18189-2.047085-1.18189h-4.358755c-2.095519 0-4.01587-1.12792-5.063628-2.94269z"/><path d="m108.0948 178.18144h4.62174v12.66939c0 2.93836-1.57111 5.678-4.1158 7.14718s-5.67989 1.46918-8.22459 0c-2.544694-1.46918-4.11229-4.18434-4.11229-7.1227l.0019-12.69387h4.62174v12.22477c0 1.29315.68988 2.48806 1.80978 3.13463 1.11989.64658 2.4679.64658 3.58779 0 1.1199-.64657 1.80978-1.84148 1.80978-3.13463z" stroke="#fff" stroke-linecap="round" stroke-linejoin="round" stroke-width=".148249"/></g></g></svg>