<?xml version="1.0" encoding="UTF-8"?>
<svg id="svg6793" xmlns="http://www.w3.org/2000/svg" version="1.1" xmlns:cc="http://creativecommons.org/ns#" xmlns:dc="http://purl.org/dc/elements/1.1/" xmlns:rdf="http://www.w3.org/1999/02/22-rdf-syntax-ns#" xmlns:svg="http://www.w3.org/2000/svg" viewBox="0 0 240.02 58.06">
  <!-- Generator: Adobe Illustrator 30.6.0, SVG Export Plug-In . SVG Version: 2.1.4 Build 109)  -->
  <defs>
    <style>
      .st0 {
        fill: #fff;
      }
    </style>
  </defs>
  <g id="layer1">
    <g id="g6738">
      <path id="path5191" class="st0" d="M15.52,3.67c.24.22.27.78-.32,1.4-.6.63-10.34,10.7-10.25,22.69.08,11.27,5.77,11.88,6.95,12.03,2.12.27,9.79-2.14,13-13.48,2.99-10.5-.63-10.55-1.02-10.58-.7-.04-4.92,1-6.15,9.92-1.55,11.19,4.98,18.57,10.4,18.45,6.16-.16,12.75-6.36,13.59-21.83.74-14.5-4.38-20.09-4.99-20.73-.64-.62-.9-1.06-.64-1.34.26-.27,1.16-.38,2.05.4,2.34,2.06,8.64,8.27,8.27,21.73-.31,12.2-7.4,24.67-18.49,24.63-10.33-.04-14.78-10.36-14.4-17.14.49-9.02,5.34-16.21,11.35-16.77,5.47-.5,6.29,5.58,5.43,10.49-1.53,8.7-10.64,19.36-19.58,18.99C2.25,42.18-.59,32.2.1,25.66,1.55,12.2,10.84,5.55,12.22,4.65c1.39-.89,2.81-1.55,3.31-.97"/>
      <path id="path5195" class="st0" d="M62.72,39.63c.25,1.62.72,4.49.08,4.42-1.43-.18-2.51-2.12-2.91-3.88-.65-2.76-2.5-13.95-2.58-14.48-.17-.94-.44-1.45-1.12-.03-1.15,2.41-4.08,10.26-5.86,15.88-.54,1.62-.98,3.16-1.53,3.2-.75.1-1.07-.5-1.33-.91-.35-.54-.79-1.89-.78-2.86.02-.88,1.06-4.68,1.68-6.29,1.39-3.5,3.52-7.78,5.46-11,1.49-2.49,2.95-4.25,4.27-4.01s1.83,3.92,2.06,5.12c.24,1.21,1.97,11.37,2.56,14.84"/>
      <path id="path5199" class="st0" d="M46.65,32.47c.21,0,.21.16.37.26.17.1.56.79,3.91,1.12,2.93.27,5.89.24,8.31.04.13.91.55,2.99.55,2.99-1.59.44-6.57,1.08-10.24.07-3.67-1.02-3.27-4.45-2.9-4.47"/>
      <path id="path5203" class="st0" d="M71.38,20.39c.58-.03.64.68.48,1.96-.17,1.22-2.02,13.01-1.79,17,1.26-.05,2.52-.23,3.9-.5,1.4-.28,3.72-.95,3.99-.49.27.45-.31,1.69-1.12,2.51-.98.99-3.77,2.37-7,2.21-2.55-.15-3.65-2.52-3.65-4.72,0-6.95,3.04-14.86,3.77-16.47.42-.94.99-1.49,1.41-1.5"/>
      <path id="path5207" class="st0" d="M84.33,25.79c2.39-4.78,6.22-5.59,8.28-5.73,1.08-.08,4.04.14,3.88,2.33-.12,2.26-4.64,5.11-12.11,4.36-7.26-.75-8.71-3.33-8.61-4.76.09-1.45,1.42-2.16,2.09-2.44.68-.26,1.25-.17,1.37.05.06.18-.05.36-.17.49-.27.27-.37.64-.24,1.03.14.41.7,2.17,7.85,2.48,6.6.28,6.99-1.34,7.02-1.71.02-.24-.42-.67-1.62-.35-1.18.31-2.64,1.02-3.83,3.32-2.42,4.69-3.36,12.66-3.68,16.57-.22,2.86-.22,3.71-.66,3.76s-3.07-1.57-2.91-5.52c.1-2.96.43-8.04,3.34-13.88"/>
      <path id="path5211" class="st0" d="M95.77,29.86c.28-2.12,3.5-6.77,15.94-7.3,12.46-.53,18.16,2.83,18.22,4.38.06,1.55-2.43,3.54-4.09,3.73-1.64.21-1.49-.46-1.47-.7.03-.23,1.84-1.58,1.99-1.68.12-.11.3-.28-.14-.37-.44-.1-3.11-.95-12.73-.84-9.63.1-15.35,1.38-15.57,4.03-.25,3.07,10.52,9.72,22.79,10.01,12.59.27,18.78-5.68,18.84-11.76.1-10.61-18.19-23.71-42.62-25.2-7.48-.45-7.21.27-7.26.54s2.06.72,2.06,1.63c0,.52-1.69.21-2.32-.05-.52-.22-2-1.17-2-2.21,0-.81.86-2.76,10.87-2.47,9.06.27,23.6,2.88,36.25,11.85,6.43,4.56,10.55,9.52,10.42,16.79-.19,10.23-11.68,14.54-23.43,14.27-8.9-.21-26.22-5.3-25.78-14.65"/>
      <path id="path5215" class="st0" d="M111.32,13.9c.89,0,2.16,5.65,1.97,16.16-.17,9.61.27,18.12-2.5,17.95-2.44-.15-2.17-9.44-1.98-15.61.17-6.19.88-18.49,2.51-18.49"/>
      <path id="path5219" class="st0" d="M145.86,18.03c-.26-.18-.64-1.9,2.35-5.57,1.27-1.57,3.53-3.84,6.79-5.46,4.13-2.04,8.69-2.68,10.25-.38,1.93,2.83-1.37,6.69-5.17,8.72-3.93,2.1-11.87,2.93-14.56-1.6-1.72-2.89.38-7.08,3.66-9.05,4-2.39,7.88-2.16,10.73-1.07,1.99.76,1.52,3.01-.59,3.01-1.61,0-5.19-1.12-8.43.8-2.07,1.24-3.09,3.24-2.05,5.14,1.54,2.81,6.87,2.56,9.95,1.03,3.58-1.8,5.12-4.4,4.32-5.53-.99-1.35-5.34.72-8.07,2.53-2.69,1.74-5.68,4.47-7.01,5.99-.51.6-1.54,1.98-2.17,1.45"/>
      <path id="path5223" class="st0" d="M151.07,21.26c.9,0,2.26,2.08,1.9,10.16-.37,8.06-1,11.58-2.7,11.58s-2.34-4.51-2.06-9.08c.26-4.59,1.42-12.58,2.86-12.66"/>
      <path id="path5227" class="st0" d="M177.96,36.09c0-4.05-6.06-5.35-11.63-6.49-4.38-.89-6.1-1.54-6.11-2.38-.04-.82,3.01-1.73,9.8-1.59,6.81.13,7.72-1.45,7.68-1.8-.08-.67-1.34-1.97-8.93-1.84-7.6.13-12.69,3.01-12.58,5.7.09,2.7,4.55,3.53,9.02,4.57,4.46,1.03,8.76,1.86,8.71,3.86-.08,2-4.18,3.48-8.14,3.48s-7.21-.67-7.27-1.65c-.03-.5,1.35-.39,2.07-.39.54,0,3.73.1,4.94.07,1.19-.03,3.52-.1,3.44-1.28-.05-1.15-2.84-1.82-5.85-1.85-3-.05-7.67.7-7.66,3.16.03,2.48,5.74,5.01,11.27,5.01s11.27-2.78,11.27-6.58"/>
      <path id="path5231" class="st0" d="M184.33,23.87c-.79,0-2.37,1.91-3.13,8.43-.73,6.25-.34,7.69-.19,8.22.27.9.81,1.28,1.27,1.71.44.4,1.55,1.39,1.79-.19.22-1.56.76-10.81.8-11.08.04-.27.16-.77.73-.04.84,1.08,5.2,7.81,7.17,10.28,1.36,1.72,2.29,2.46,3.09,2.42.81-.05,3.17-.22,3.59-11.85.3-8.43-2.83-11.54-3.5-12.02-.66-.5-.95-.46-1.08-.33s-.1.37.18.95c.26.58,1.17,3.55,1.17,9.02,0,3.96-.51,6.29-.82,7.5-.17.62-.35,1.03-.93.4-.86-.91-2.38-3.2-4.14-5.79-2.12-3.1-4.8-7.72-6.02-7.62"/>
      <path id="path5235" class="st0" d="M203.41,23.69c0-.94,4.54-2.08,8.12-2.24,3.78-.19,5.95.31,6.32.69.42.42,1.44,1.86.91,2.44s-5.57.72-9.08.58c-.6,1.93-2.09,7.1-2.26,10.86-.19,3.78,1.65,3.29,3.31,3.14,1.65-.13,4.81-.48,5.88-.53.32-.02,1.02-.02,1.07.45.05.5-.33.84-.92,1.25-.77.58-4.99,3.1-9.23,2.92-3.05-.14-3.81-1.83-3.86-4-.07-3.46,2.02-12.16,2.8-14.22-.86-.1-3.17-.16-3.06-1.35"/>
      <path id="path5239" class="st0" d="M202.29,32.3c-.12.4.63,1.63,3.32,1.98s6.32-.05,7.18-.23c.85-.17,1.83-1.01,2.2-1.71.35-.66.45-1.07.09-1.29-.38-.23-1.71-.3-3.51-.19-2.79.19-7.1.75-8.24.95-.67.11-.98.23-1.05.49"/>
      <path id="path5243" class="st0" d="M226.63,20.27c.54,0,.34.68-.06,1.55-.41.88-3.08,6.46-3.71,11.31-.48,3.63.75,6.12,4.51,6.46,3.78.34,7.35-4.58,8.49-7.45,1.14-2.9,2.22-6.41.67-6.94-1.55-.54-4.74,4.32-6.92,8.81-1.69,3.42-4.65,9.28-7.61,21.89-.54,2.27-.94,2.2-1.41,2.14-.46-.06-2.43-1.21-1.82-5.66.61-4.44,3.37-10.63,5.39-15.01,2.01-4.37,9.28-16.89,13.48-15.95,4.15.94,1.82,9.45.78,11.71-1.46,3.23-5.97,12.32-14.52,9.16-3.87-1.44-4.78-6.46-3.52-11.11.91-3.26,3.37-7.94,4.7-9.69.55-.68,1.04-1.48,1.57-1.22"/>
    </g>
  </g>
</svg>